<?xml version="1.0" standalone="no"?>
<!DOCTYPE svg PUBLIC "-//W3C//DTD SVG 20010904//EN"
 "http://www.w3.org/TR/2001/REC-SVG-20010904/DTD/svg10.dtd">
<svg version="1.0" xmlns="http://www.w3.org/2000/svg"
 width="449.000000pt" height="512.000000pt" viewBox="0 0 449.000000 512.000000"
 preserveAspectRatio="xMidYMid meet">
<metadata>
Created by potrace 1.16, written by Peter Selinger 2001-2019
</metadata>
<g transform="translate(0.000000,512.000000) scale(0.100000,-0.100000)"
fill="#000000" stroke="none">
<path d="M1785 5093 c-9 -39 -52 -81 -89 -89 -46 -10 -99 -43 -124 -78 -85
-118 -114 -170 -122 -221 -5 -30 -24 -87 -43 -127 -68 -142 -102 -327 -100
-538 1 -165 29 -280 95 -393 25 -43 58 -113 58 -123 0 -2 -16 -4 -35 -4 -26 0
-33 -4 -29 -15 3 -8 15 -17 27 -21 12 -4 28 -13 35 -21 13 -12 17 -12 28 -1
17 17 20 113 9 311 -7 136 -7 147 9 141 13 -5 14 -9 5 -20 -10 -12 -8 -13 7
-8 18 6 18 6 0 -8 -18 -14 -19 -20 -9 -64 8 -36 8 -51 0 -56 -6 -4 -8 -10 -4
-15 4 -4 17 -1 28 6 17 10 24 10 38 -3 19 -17 28 -86 11 -86 -13 0 -13 -23 1
-37 9 -9 18 -8 36 4 23 15 74 14 132 -3 17 -5 22 -4 17 4 -4 7 -15 12 -25 12
-43 0 -53 43 -18 80 l22 25 3 -25 c1 -14 10 -42 20 -62 14 -30 23 -38 45 -38
41 0 34 -26 -10 -35 l-38 -8 45 -9 c25 -4 59 -6 75 -3 82 16 95 16 95 5 0 -6
-5 -8 -10 -5 -6 4 -5 -5 2 -19 11 -25 12 -25 29 -9 10 10 33 31 53 47 19 17
33 33 30 38 -3 4 -2 8 3 8 4 0 19 21 33 46 23 45 24 47 5 60 -10 8 -15 14 -11
14 5 0 3 7 -4 15 -10 12 -10 15 1 15 12 0 12 2 0 9 -7 5 -14 27 -15 49 0 22
-2 39 -5 37 -8 -9 -41 16 -41 31 0 17 -47 37 -72 31 -10 -3 -18 -2 -18 1 0 10
-115 6 -130 -3 -9 -5 -11 -4 -6 3 4 7 3 12 -3 12 -5 0 -12 -4 -15 -9 -5 -8
-58 -6 -83 4 -7 2 -13 1 -13 -3 0 -4 -13 -8 -30 -9 -16 -1 -43 -9 -59 -18 -39
-20 -59 -19 -57 3 0 9 -5 16 -12 14 -9 -2 -12 10 -11 41 2 24 -1 49 -5 55 -4
7 -3 12 2 12 6 0 13 8 17 18 5 14 4 15 -6 5 -7 -7 -18 -13 -25 -13 -15 0 -11
73 5 78 6 2 8 9 4 15 -4 7 1 6 10 -2 15 -12 17 -10 17 28 0 22 4 41 8 41 5 0
18 9 29 20 12 11 28 21 35 22 7 2 18 10 24 18 9 11 17 12 36 3 23 -10 25 -10
20 15 -3 15 -1 24 3 20 10 -10 38 19 30 32 -3 5 -1 10 4 10 6 0 11 -4 11 -8 0
-5 16 -14 35 -22 19 -8 35 -18 35 -24 0 -6 7 0 16 13 15 21 18 22 26 7 9 -16
12 -16 34 -1 13 8 24 11 24 5 0 -14 16 -13 32 3 7 8 18 12 24 10 6 -2 14 5 17
17 5 18 9 19 33 10 22 -9 29 -8 36 5 5 8 14 13 19 9 5 -3 17 0 25 7 8 6 17 9
21 5 4 -3 18 4 31 16 14 13 22 17 18 10 -9 -15 32 -11 42 5 4 5 17 9 30 8 15
-1 21 3 18 11 -3 7 1 15 9 18 7 2 16 -2 19 -10 4 -11 10 -12 24 -5 13 7 22 7
29 0 6 -6 19 -9 29 -7 25 4 55 -27 48 -49 -4 -13 -3 -14 4 -5 5 8 20 11 38 8
16 -4 23 -3 16 0 -6 3 -10 10 -6 15 9 15 24 0 25 -24 0 -12 3 -16 6 -9 2 6 12
12 20 12 14 0 14 -3 -2 -20 -17 -18 -17 -20 0 -26 9 -4 20 -2 24 4 4 7 12 8
21 2 13 -8 12 -10 -2 -10 -10 0 -18 -5 -18 -11 0 -5 5 -7 10 -4 6 3 10 -1 10
-10 0 -12 6 -15 20 -10 12 4 26 0 36 -10 15 -15 18 -15 37 2 19 18 20 18 6 -5
-8 -12 -22 -25 -32 -28 -17 -5 -16 -7 4 -25 20 -17 41 -27 26 -12 -4 3 -2 12
4 20 9 10 8 13 -2 13 -10 0 -10 3 -1 12 15 15 52 18 52 4 0 -6 5 -4 10 4 5 8
10 11 10 5 1 -5 6 1 11 14 7 17 14 21 27 16 9 -4 24 -8 32 -10 8 -1 9 0 2 2
-7 3 -10 9 -7 14 4 5 0 9 -7 9 -10 0 -10 2 0 9 8 4 13 11 13 15 -3 22 1 25 22
17 18 -7 23 -5 23 9 0 12 -7 16 -21 13 -16 -3 -16 -2 3 7 14 6 20 15 16 21 -5
8 -3 9 6 4 10 -6 12 -4 7 9 -4 11 -3 15 4 10 6 -4 9 -19 5 -38 -4 -19 -3 -26
3 -18 7 11 9 11 14 -1 3 -9 -1 -18 -9 -21 -10 -4 -12 -11 -4 -31 7 -19 6 -27
-3 -30 -38 -11 -41 -13 -19 -14 19 -1 21 -4 12 -20 -8 -16 -6 -22 7 -30 10 -6
12 -11 6 -11 -7 0 -13 -5 -13 -11 0 -5 5 -7 11 -3 8 4 8 1 1 -12 -11 -21 -10
-93 1 -111 5 -7 0 -10 -15 -6 -59 13 -88 26 -88 39 0 8 -5 14 -11 14 -6 0 -9
8 -7 18 3 11 0 19 -7 19 -7 0 -11 -6 -9 -12 3 -6 -2 -12 -10 -12 -12 0 -14 8
-10 30 3 19 0 33 -8 38 -22 14 -34 10 -35 -11 -1 -11 2 -20 7 -20 4 0 10 -6
13 -14 4 -9 -2 -12 -17 -11 -26 3 -58 -18 -54 -36 4 -15 -38 -39 -69 -39 -13
0 -23 -4 -23 -10 0 -5 -16 -8 -35 -6 -19 1 -36 -3 -38 -9 -3 -6 -23 -20 -46
-30 -22 -11 -41 -24 -41 -28 0 -5 -4 -6 -9 -3 -5 3 -11 -1 -15 -9 -3 -8 -12
-15 -20 -15 -8 0 -17 -15 -20 -35 -4 -20 -11 -33 -16 -30 -4 3 -6 -3 -3 -14 3
-10 0 -22 -6 -25 -6 -4 -11 -18 -11 -32 0 -14 -3 -23 -8 -20 -4 2 -9 -23 -10
-55 -3 -52 0 -64 23 -90 14 -17 25 -28 25 -26 0 3 15 -9 33 -26 17 -16 31 -34
29 -39 -1 -5 2 -7 8 -3 6 3 30 -4 54 -16 l44 -21 30 22 c17 13 28 28 25 33 -4
6 2 8 15 5 13 -4 23 0 26 9 4 9 2 11 -6 7 -6 -4 -8 -3 -5 3 4 6 32 10 62 9 31
-1 58 1 60 4 2 4 18 5 35 4 20 -1 35 4 44 18 8 11 15 15 18 8 2 -7 14 -1 31
14 18 17 25 30 20 43 -6 16 -5 16 9 5 13 -10 22 -11 37 -3 11 6 27 8 35 5 11
-4 24 3 38 21 16 21 23 24 30 13 7 -10 8 -8 7 7 -3 44 1 54 18 48 11 -4 13 -8
5 -11 -7 -2 -9 -8 -6 -13 3 -6 11 -5 20 2 11 9 14 8 14 -9 0 -11 7 -22 15 -26
9 -3 12 -12 8 -22 -5 -13 -3 -15 7 -9 10 6 12 3 8 -13 -4 -12 0 -26 8 -33 8
-7 13 -18 10 -25 -3 -7 0 -14 6 -16 13 -5 18 -58 6 -58 -5 0 -3 -9 4 -19 10
-16 9 -27 -5 -55 -15 -33 -15 -35 0 -29 14 5 12 0 -5 -24 -16 -23 -19 -33 -10
-36 10 -4 10 -6 1 -6 -7 -1 -10 -8 -7 -16 4 -9 0 -15 -8 -15 -8 0 -20 -12 -26
-26 -7 -14 -16 -23 -21 -19 -5 3 -19 -8 -31 -25 -12 -16 -26 -29 -31 -27 -6 1
-19 -14 -30 -33 -11 -21 -26 -35 -37 -34 -10 1 -18 -6 -19 -15 0 -9 -6 -32
-13 -51 -22 -58 -23 -65 -21 -74 1 -5 -4 -4 -12 2 -11 9 -16 7 -26 -11 -7 -13
-14 -32 -15 -42 -2 -12 -10 -19 -20 -17 -11 2 -16 -4 -16 -18 0 -13 -4 -18
-11 -14 -6 3 -24 -3 -40 -15 -27 -20 -31 -20 -45 -6 -18 17 -40 20 -49 5 -4
-6 -11 -8 -16 -4 -5 3 -7 9 -4 14 9 14 -39 8 -57 -8 -12 -10 -14 -20 -8 -36
10 -27 -8 -29 -95 -11 -33 7 -67 13 -75 14 -8 1 -28 3 -45 5 -37 4 -75 -9 -75
-26 0 -7 -15 -19 -32 -27 -18 -7 -45 -19 -60 -26 -16 -8 -30 -9 -33 -4 -3 5
-28 7 -55 4 -45 -4 -50 -3 -50 15 0 11 -5 20 -11 20 -5 0 -7 -6 -3 -12 5 -9 2
-9 -9 1 -9 7 -17 9 -17 4 0 -13 -75 -37 -93 -30 -8 3 -20 0 -26 -6 -8 -8 -11
-8 -11 2 0 7 -4 10 -9 7 -5 -4 -12 0 -14 6 -3 7 -6 2 -6 -12 -1 -19 -3 -22
-11 -10 -8 12 -10 12 -16 -3 -3 -9 -11 -14 -16 -11 -6 4 -13 1 -17 -5 -5 -7
-15 3 -27 26 -10 21 -22 40 -26 41 -5 2 -8 12 -8 22 0 10 -6 25 -12 32 -24 25
-40 61 -42 90 -1 16 -8 33 -15 38 -8 4 -13 19 -13 34 0 20 -6 26 -22 26 -15 0
-17 3 -8 9 10 6 10 10 -3 21 -12 10 -15 10 -15 -4 0 -9 -5 -16 -11 -16 -5 0
-7 5 -4 11 4 5 -1 19 -10 29 -9 10 -14 24 -10 29 3 6 2 11 -3 11 -18 0 -21
-13 -7 -32 7 -11 11 -26 8 -34 -3 -7 5 -27 17 -44 17 -24 19 -34 10 -44 -7
-10 -8 -16 -1 -21 18 -11 42 -107 31 -121 -8 -9 -4 -17 15 -32 14 -11 25 -25
25 -32 0 -6 3 -9 8 -7 4 3 7 -7 8 -21 1 -32 7 -57 23 -97 21 -53 22 -61 5 -40
-16 19 -16 19 -9 -5 4 -14 38 -85 77 -159 63 -121 69 -138 64 -175 -4 -23 -14
-53 -24 -67 -9 -14 -38 -57 -63 -95 -26 -38 -56 -94 -69 -124 -41 -102 -60
-141 -73 -144 -87 -23 -195 -71 -176 -79 8 -4 1 -3 -15 0 -22 5 -27 3 -21 -7
5 -9 4 -11 -3 -6 -6 4 -40 -5 -75 -19 -35 -14 -68 -25 -74 -25 -6 0 -16 -7
-23 -15 -7 -8 -16 -12 -20 -10 -5 3 -78 -18 -163 -46 -148 -49 -234 -88 -211
-96 6 -2 -1 -17 -18 -35 -16 -17 -32 -28 -35 -24 -4 3 3 13 15 22 12 8 22 20
22 25 0 6 -13 0 -29 -13 -15 -13 -26 -28 -24 -35 3 -6 -5 -16 -16 -22 -26 -14
-34 -14 -26 2 10 17 -62 -60 -108 -116 -21 -26 -34 -47 -28 -47 6 0 8 -7 4
-16 -4 -10 -8 -12 -13 -5 -9 15 -25 -21 -61 -132 -61 -189 -95 -402 -92 -577
0 -41 1 -84 1 -95 1 -11 1 -24 1 -30 1 -49 29 -128 59 -166 7 -9 23 -36 35
-60 17 -33 31 -46 61 -56 51 -17 65 -38 66 -94 0 -26 7 -66 15 -89 8 -24 13
-45 10 -48 -9 -9 -71 22 -135 68 -81 59 -90 64 -90 51 0 -5 39 -37 88 -70 l87
-61 1918 0 c1054 0 1917 2 1917 5 0 2 -9 28 -21 57 -54 138 -84 257 -124 493
-21 122 -15 217 21 318 35 98 62 141 133 216 l61 63 0 84 c0 99 2 98 -100 13
-98 -81 -164 -178 -194 -285 -48 -165 -50 -318 -7 -435 22 -59 54 -178 75
-279 8 -36 17 -78 21 -95 10 -43 -108 130 -154 225 l-36 75 2 160 c1 144 5
172 32 279 17 65 42 141 56 168 13 26 29 66 35 88 12 46 85 115 197 188 l72
47 1 231 c0 249 1 244 -52 244 -13 0 -18 -5 -15 -14 4 -11 1 -13 -11 -9 -24 8
-52 34 -47 43 5 8 -92 25 -200 36 -95 9 -216 5 -232 -8 -10 -8 -19 -6 -36 11
-25 22 -83 29 -89 10 -3 -8 -24 -4 -66 11 -67 25 -88 42 -75 62 4 7 8 23 8 35
1 19 -5 23 -27 23 -15 0 -28 -3 -28 -7 0 -5 -7 -16 -14 -26 -13 -17 -17 -17
-50 -3 -24 10 -34 20 -30 29 6 17 0 22 -37 31 -25 5 -28 2 -49 -53 -12 -33
-60 -127 -106 -211 -46 -84 -81 -156 -78 -161 3 -5 0 -9 -5 -9 -6 0 -11 -5
-11 -11 0 -6 -7 -17 -15 -26 -8 -8 -13 -19 -10 -24 4 -5 2 -9 -3 -9 -5 0 -12
-8 -16 -17 -3 -10 -19 -39 -35 -65 -16 -25 -37 -75 -46 -110 -9 -35 -23 -76
-30 -93 -21 -46 -28 -69 -26 -79 1 -5 -3 -13 -10 -17 -7 -4 -12 -23 -11 -43 1
-35 -10 -47 -24 -25 -3 6 -19 9 -35 7 -20 -3 -29 0 -29 9 0 7 5 13 10 13 6 0
10 7 10 16 0 66 162 418 329 719 67 119 111 229 111 275 0 16 -10 48 -21 70
-13 25 -25 75 -31 128 -14 131 -38 154 -139 133 -29 -6 -54 -9 -57 -6 -15 15
-23 267 -12 374 16 153 17 157 77 165 40 5 56 14 89 48 24 25 30 35 14 25 -13
-10 -32 -17 -42 -17 -10 0 -18 -4 -18 -9 0 -7 -23 -8 -68 -3 -8 1 -12 11 -10
25 2 14 9 21 20 19 9 -1 20 2 23 8 5 7 12 5 22 -7 8 -10 12 -12 8 -5 -7 15 -4
15 29 2 26 -9 38 3 14 13 -10 4 -10 6 0 6 6 1 12 8 12 16 0 8 7 15 16 15 8 0
12 5 9 10 -3 6 -1 10 5 10 6 0 8 5 5 10 -3 6 -1 10 4 10 14 0 14 -23 0 -37 -6
-6 -9 -19 -7 -29 7 -31 46 55 63 137 8 39 27 90 41 114 63 108 40 315 -34 315
-8 0 -36 -8 -63 -17 -26 -10 -51 -15 -54 -11 -3 3 4 21 15 41 11 19 34 76 50
127 28 84 31 107 36 274 l5 181 -29 80 c-78 213 -128 298 -240 408 -37 36 -89
89 -115 117 -27 27 -51 50 -54 50 -3 0 -19 10 -36 23 -18 12 -41 27 -52 33
-77 41 -122 69 -136 85 -16 18 -38 19 -487 19 l-470 0 -7 -27z m345 -2298 c19
-3 69 -6 110 -6 88 -2 121 -19 92 -48 -28 -27 -119 -64 -127 -51 -8 13 -58 2
-71 -16 -8 -10 -20 -13 -38 -8 -19 4 -28 2 -32 -10 -7 -18 -44 -22 -44 -5 0 8
-6 7 -17 -2 -9 -8 -14 -9 -11 -4 4 7 -7 10 -29 10 -34 -2 -45 10 -58 58 -2 4
-3 8 -5 10 -1 1 -3 12 -4 25 -3 24 13 29 44 12 13 -7 21 -6 30 5 7 8 9 15 4
15 -5 1 5 7 21 14 29 13 57 13 135 1z m-39 -248 c8 -11 99 -16 125 -6 12 4 25
5 28 2 6 -6 80 -13 163 -16 24 -1 43 -6 43 -10 0 -5 4 -6 9 -2 15 9 24 -14 11
-30 -8 -10 -7 -16 6 -23 15 -8 15 -9 0 -15 -10 -4 -15 -3 -11 3 9 15 -11 12
-24 -4 -14 -16 -61 -27 -61 -14 0 5 -4 6 -10 3 -6 -3 -7 1 -4 9 8 20 -10 21
-29 1 -8 -8 -17 -11 -21 -8 -3 3 -11 1 -18 -5 -7 -5 -26 -8 -43 -7 -16 2 -36
-1 -43 -7 -10 -9 -16 -8 -21 1 -7 10 -13 10 -30 2 -11 -7 -21 -9 -21 -5 0 4
-9 -1 -19 -10 -15 -13 -20 -14 -24 -4 -3 8 -9 4 -15 -12 -6 -14 -11 -19 -11
-11 -1 9 -7 11 -18 6 -56 -23 -143 -11 -143 21 0 7 -4 14 -10 16 -5 2 -11 19
-12 38 -2 25 1 34 11 32 8 -2 11 3 8 13 -9 21 10 19 22 -2 9 -15 10 -15 11 -2
0 8 -5 20 -10 25 -7 7 -6 11 4 11 8 0 14 -3 13 -6 -1 -3 3 -6 8 -6 6 0 9 6 9
13 -2 10 1 10 14 0 11 -9 16 -10 19 -2 2 7 13 10 23 7 11 -3 20 0 20 6 0 12
42 11 51 -2z m-167 -582 c10 -7 16 -20 14 -27 -7 -19 51 -42 69 -27 10 9 17 9
24 2 8 -8 6 -11 -6 -10 -10 1 -20 -3 -22 -9 -2 -8 11 -10 42 -8 30 2 45 0 45
-9 0 -7 3 -8 8 -2 8 11 42 16 42 6 0 -3 -9 -12 -20 -19 -11 -7 -17 -18 -14
-27 3 -8 10 -12 15 -9 5 3 9 0 9 -5 0 -6 3 -10 8 -9 15 4 52 -14 52 -25 0 -8
3 -8 12 1 15 15 28 15 28 1 0 -5 -6 -7 -12 -3 -8 4 -10 3 -5 -2 5 -5 12 -9 15
-9 4 0 13 -4 21 -9 10 -6 12 -5 7 2 -4 7 -4 12 1 12 14 -1 48 -31 48 -43 0 -7
5 -13 10 -15 17 -5 25 -42 15 -62 -9 -16 -7 -18 15 -16 14 2 31 9 38 16 10 10
9 11 -3 5 -12 -7 -13 -6 -2 6 11 12 14 12 23 -1 8 -11 12 -12 16 -2 2 6 9 10
14 6 5 -3 9 0 9 6 0 6 7 19 16 28 15 15 15 16 -2 22 -16 6 -16 7 4 12 23 6 39
-6 22 -17 -16 -10 -12 -28 5 -21 11 4 17 -3 22 -25 4 -19 10 -28 19 -25 8 3
11 0 7 -9 -3 -8 -9 -12 -14 -9 -14 9 -10 -20 6 -42 17 -22 20 -38 5 -29 -5 3
-10 0 -10 -9 0 -8 -6 -17 -12 -19 -10 -4 -9 -8 2 -16 9 -6 10 -11 3 -11 -6 0
-10 -11 -8 -25 3 -34 -41 -70 -158 -127 -65 -32 -112 -48 -156 -53 -46 -5 -62
-4 -57 4 4 6 24 11 44 11 20 1 51 7 67 14 l30 14 -32 7 c-43 10 -70 39 -54 59
9 10 9 15 0 18 -6 2 -12 16 -12 31 -1 15 -8 27 -15 27 -7 0 -10 4 -7 10 3 6
-1 7 -9 4 -9 -3 -16 -14 -16 -24 0 -21 -29 -47 -51 -47 -16 0 -49 53 -56 90
-2 10 -10 25 -18 33 -8 9 -15 31 -15 51 0 20 -13 58 -29 88 -16 29 -27 55 -25
58 2 2 -7 33 -20 68 -32 85 -43 159 -25 159 8 0 22 -7 33 -15z m2391 -125 c17
-7 16 -9 -10 -9 -45 -2 -131 -27 -171 -50 -19 -12 -63 -28 -98 -37 -34 -8 -80
-25 -101 -37 -36 -20 -43 -32 -91 -155 -78 -200 -89 -252 -88 -422 0 -82 8
-186 17 -240 20 -121 33 -372 17 -348 -8 14 -16 15 -36 8 -30 -12 -133 -35
-224 -50 -36 -7 -72 -17 -80 -24 -22 -19 -136 -36 -237 -36 -80 0 -97 -3 -149
-30 -32 -16 -75 -33 -94 -36 -44 -8 -60 -21 -60 -48 -1 -44 -20 -54 -85 -45
-33 5 -150 13 -260 19 -336 17 -605 45 -605 62 0 5 -11 6 -25 4 -28 -5 -32 5
-10 24 12 10 18 10 30 0 13 -11 15 -5 15 43 0 35 -5 57 -12 60 -8 3 -6 6 5 6
9 1 17 7 17 14 0 11 13 11 73 0 39 -7 162 -15 273 -17 110 -1 206 -6 213 -10
7 -5 72 -9 144 -11 73 -1 160 -6 195 -10 52 -7 62 -5 62 7 0 23 -56 31 -225
32 -82 1 -155 5 -162 9 -7 4 -110 9 -230 12 -168 3 -240 9 -312 24 -59 13
-111 18 -138 14 -58 -8 -63 10 -22 86 31 58 35 61 62 55 15 -3 42 0 58 6 25
11 57 9 190 -10 128 -18 167 -21 197 -12 54 16 184 22 229 10 57 -15 391 -16
397 -1 8 19 -78 27 -167 17 -57 -7 -97 -6 -150 4 -96 18 -266 16 -287 -3 -18
-16 -81 -11 -236 17 -72 13 -126 14 -184 4 -62 -11 -66 3 -26 82 34 68 37 71
61 62 44 -17 111 -15 140 4 22 14 34 15 83 6 31 -6 103 -13 160 -16 99 -5 104
-4 133 21 37 30 40 30 170 4 78 -16 120 -20 169 -14 36 4 92 10 125 13 l60 7
11 51 c19 85 17 84 146 58 78 -16 79 -16 126 8 40 20 48 29 56 63 10 47 15 51
73 60 24 3 46 12 49 19 4 10 27 13 85 12 91 -3 80 -16 99 117 21 144 85 297
157 377 94 105 258 179 393 179 36 0 74 -4 85 -9z m-2705 -258 c0 -23 -105
-260 -125 -282 -8 -9 -15 -22 -15 -28 0 -19 -13 -13 -38 18 l-22 28 23 29 c28
34 145 215 153 237 8 22 24 20 24 -2z m428 -219 c31 -20 39 -30 31 -40 -6 -7
-17 -53 -24 -102 -8 -50 -20 -102 -28 -118 l-15 -27 -17 39 c-22 51 -32 155
-16 155 6 0 14 -7 17 -15 4 -8 10 -15 15 -15 5 0 -3 16 -16 36 -25 36 -31 68
-19 98 9 22 24 20 72 -11z m-316 -401 c7 2 13 -1 12 -7 -1 -11 -24 -123 -29
-141 -5 -18 -91 -23 -258 -13 -181 10 -304 6 -466 -16 -63 -8 -133 -15 -156
-15 -30 0 -47 -6 -61 -21 -19 -22 -19 -22 1 -11 40 21 348 44 542 41 103 -2
236 -3 294 -4 l106 0 -4 -75 c-3 -41 -6 -81 -9 -88 -3 -11 -40 -12 -191 -5
-291 12 -573 8 -692 -10 -57 -9 -106 -19 -109 -22 -14 -13 11 -13 94 0 124 21
367 28 504 16 94 -9 258 -18 378 -21 19 0 22 -5 21 -42 0 -24 -3 -61 -7 -83
-7 -38 -9 -40 -47 -42 -22 0 -134 5 -250 13 -215 14 -568 17 -664 6 -53 -7
-61 -13 -76 -57 l-7 -20 -8 20 c-5 11 -9 45 -9 76 -1 52 1 57 23 63 13 3 27
13 30 22 6 16 6 16 -41 -3 -10 -4 -14 12 -15 58 -3 106 1 133 22 149 11 8 25
38 31 68 l12 52 62 0 c62 0 63 0 89 40 l26 40 83 0 c50 0 105 7 138 17 44 13
100 17 296 17 133 1 244 4 248 8 3 3 21 2 40 -3 18 -5 39 -8 47 -7z"/>
<path d="M3764 1438 c-21 -41 -69 -204 -84 -289 -28 -156 -30 -159 -128 -159
-42 0 -56 -4 -73 -24 -12 -14 -42 -28 -74 -36 -37 -9 -55 -19 -58 -31 -6 -22
-6 -22 58 -6 33 9 53 20 59 34 8 18 22 22 94 27 58 5 88 4 98 -5 12 -10 14 -5
14 27 0 75 67 366 105 457 19 46 12 49 -11 5z"/>
<path d="M3575 755 c-86 -13 -114 -22 -130 -41 -5 -6 -35 -20 -65 -29 -30 -10
-60 -21 -66 -26 -5 -4 -19 -6 -30 -3 -11 3 -44 -4 -72 -15 -36 -14 -76 -21
-125 -21 -84 0 -117 -7 -117 -25 0 -18 184 -8 222 11 15 8 47 14 73 14 25 0
45 5 45 10 0 6 11 10 24 10 37 0 90 21 107 42 12 16 41 24 133 37 64 9 117 19
117 24 -1 4 -1 12 -1 17 0 12 -10 11 -115 -5z"/>
<path d="M2295 3195 c-21 -17 -33 -21 -41 -14 -9 7 -20 6 -36 -4 -37 -24 -74
-29 -88 -12 -21 25 -79 30 -117 10 -18 -10 -33 -22 -33 -26 0 -4 14 -18 32
-30 l31 -23 -5 22 c-6 20 -2 22 39 22 32 0 53 -7 77 -25 40 -30 59 -31 103 -4
20 13 44 19 59 16 16 -3 28 1 34 12 8 14 9 14 10 -2 0 -10 5 -15 10 -12 6 3
10 1 10 -5 0 -20 54 -6 77 20 31 34 30 52 -2 44 -14 -3 -25 -2 -25 4 0 8 -74
33 -97 32 -4 -1 -21 -12 -38 -25z"/>
<path d="M4441 1043 c-94 -106 -149 -280 -136 -433 7 -80 34 -219 65 -334 29
-103 94 -269 108 -274 9 -3 12 119 12 542 0 300 -2 546 -4 546 -2 0 -23 -21
-45 -47z"/>
</g>
</svg>
